<svg xmlns="http://www.w3.org/2000/svg" version="1.1" xmlns:xlink="http://www.w3.org/1999/xlink" xmlns:svgjs="http://svgjs.com/svgjs" width="213" height="213"><svg width="213" height="213" viewBox="0 0 213 213" fill="none" xmlns="http://www.w3.org/2000/svg">
	<path d="M162.4 212.5H50.1C22.4 212.5 0 190.1 0 162.4V50.1C0 22.4 22.4 0 50.1 0H162.4C190.1 0 212.5 22.4 212.5 50.1V162.4C212.5 190.1 190.1 212.5 162.4 212.5Z" fill="#6ECFF7"></path>
	<path d="M102.9 154.3L74.8 142.1L63.6 153.4C61.7 155.2 58.8 153 60 150.7L69.3 130.2C69.5 129.6 70.1 129.3 70.7 129.5L102.6 139.7L108.2 126.6H130.9C131 126.6 131 126.7 131 126.7L113 151.8C110.4 155.3 106.9 156 102.9 154.3Z" fill="black"></path>
	<path d="M157.6 120.2C150.4 125.4 143.9 125.9 134.8 126.7C134.8 126.7 134.7 126.8 134.8 126.8L155.2 141.5L141.1 174.5C140.7 175.3 141.1 176.5 142 176.5H167C169.7 176.5 170.1 173.7 168.1 172.9L154.9 167.4L167 145.4C170.5 139.4 170.2 136.4 167.2 132.4L157.6 120.2Z" fill="black"></path>
	<path d="M135.3 39H102.2C99 39 96.4 41.6 96.4 44.9V114.9C96.4 118.1 99 120.8 102.2 120.8H135.3C157.6 120.8 175.8 102.5 175.8 79.9C175.8 57.3 157.6 39 135.3 39ZM151.7 80.5C151.7 88.9 144.9 95.8 136.6 95.8H124.3C122.5 95.8 121.1 94.3 121.1 92.5V67.8C121.1 66 122.5 64.5 124.3 64.5H136.6C145 64.5 151.7 71.3 151.7 79.8V80.5Z" fill="black"></path>
	<path d="M43.1 88.2L36.7 78.5C36.6 78.5 36.6 78.5 36.6 78.5V92.8C36.6 93.8 35.8 94.6 34.8 94.6H30.8C29.8 94.6 29 93.8 29 92.8V67.4C29 66.4 29.8 65.6 30.8 65.6H36C36.7 65.6 37.4 66 37.8 66.7L44.2 77.1C44.4 77.4 44.8 77.4 45 77.1L51.5 66.6C51.9 65.9 52.6 65.6 53.3 65.6H58.5C59.5 65.6 60.3 66.4 60.3 67.4V92.8C60.3 93.8 59.5 94.6 58.5 94.6H54.3C53.3 94.6 52.5 93.8 52.5 92.8V78.4C52.4 78.4 52.4 78.4 52.4 78.4L46 88.2C45.4 89.2 43.9 89.2 43.1 88.2Z" fill="black"></path>
	<path d="M65.2 67.3C65.2 66.3 66 65.5 67 65.5H79.2C83.5 65.5 86.4 66.7 88.3 68.7C89.9 70.4 90.8 72.6 90.8 75.5V75.6C90.8 80 88.5 83.2 85 84.8L91.4 93C91.8 93.6 91.4 94.7 90.6 94.7H84.8C84.1 94.7 83.4 94.3 83.1 93.7L77.3 85.9H73.6C73.3 85.9 73.1 86.1 73.1 86.4V92.8C73.1 93.8 72.3 94.6 71.3 94.6H67.1C66.1 94.6 65.3 93.8 65.3 92.8V67.3H65.2ZM78.8 79.5C81.4 79.5 82.9 78.2 82.9 76.1V76C82.9 73.7 81.3 72.6 78.7 72.6H73.6C73.2 72.6 72.8 73 72.8 73.4V78.8C72.8 79.2 73.1 79.6 73.6 79.6H78.8V79.5Z" fill="black"></path>
</svg><style>@media (prefers-color-scheme: light) { :root { filter: none; } }
</style></svg>