<?xml version="1.0" standalone="no"?>
<!DOCTYPE svg PUBLIC "-//W3C//DTD SVG 20010904//EN"
 "http://www.w3.org/TR/2001/REC-SVG-20010904/DTD/svg10.dtd">
<svg version="1.0" xmlns="http://www.w3.org/2000/svg"
 width="700.000000pt" height="700.000000pt" viewBox="0 0 700.000000 700.000000"
 preserveAspectRatio="xMidYMid meet">
<metadata>
Created by potrace 1.14, written by Peter Selinger 2001-2017
</metadata>
<g transform="translate(0.000000,700.000000) scale(0.100000,-0.100000)"
fill="#000000" stroke="none">
<path d="M3485 6759 c-47 -3 -96 -13 -118 -23 -54 -27 -111 -88 -136 -148
l-21 -51 2 -1736 3 -1736 22 -41 c43 -81 119 -137 205 -152 49 -8 1706 -7
1783 1 114 13 214 30 305 52 191 47 400 139 575 253 60 39 186 134 221 167
155 144 240 242 338 390 163 243 283 570 314 852 9 88 9 370 0 454 -38 338
-177 681 -392 964 -56 75 -233 259 -301 315 -268 218 -622 378 -920 416 -22 3
-46 7 -53 9 -49 17 -1620 29 -1827 14z m1780 -1226 c307 -63 537 -316 572
-631 26 -241 -45 -465 -196 -619 -94 -95 -174 -147 -291 -186 -109 -37 -135
-39 -507 -40 -361 0 -371 1 -416 51 -41 45 -42 66 -42 703 1 599 1 616 21 654
13 25 36 47 62 61 41 22 50 22 385 22 256 -1 361 -4 412 -15z"/>
<path d="M46 5483 c-14 -7 -30 -22 -36 -33 -13 -25 -14 -1248 0 -1284 16 -43
53 -54 183 -52 112 2 118 3 143 27 l26 26 0 357 c0 196 1 356 2 356 1 0 72
-106 157 -235 224 -341 215 -340 407 -44 73 112 139 212 147 222 8 9 15 21 15
26 0 5 7 14 15 21 12 10 14 -32 14 -340 0 -380 1 -390 54 -409 12 -4 78 -7
146 -7 122 2 124 2 147 30 l24 28 -2 639 -3 638 -22 23 c-21 20 -32 22 -165
23 -79 1 -157 -3 -174 -8 -35 -11 -39 -16 -239 -340 -88 -141 -134 -207 -144
-205 -9 2 -86 117 -171 256 -86 139 -165 262 -177 274 -20 20 -33 21 -172 23
-108 1 -157 -2 -175 -12z"/>
<path d="M1757 5478 c-14 -13 -27 -30 -28 -38 -1 -8 -1 -297 0 -642 l1 -627
24 -28 c24 -28 25 -28 148 -29 122 -1 165 8 185 38 4 7 10 94 13 193 l5 180
97 3 97 3 93 -127 c51 -70 98 -132 103 -138 6 -6 30 -38 54 -71 23 -33 52 -65
64 -72 15 -8 75 -12 178 -13 139 0 158 2 172 18 10 10 17 26 17 35 0 8 -33 58
-73 109 -40 51 -110 141 -155 200 l-83 108 47 27 c65 38 136 114 174 184 17
32 29 59 25 59 -3 0 -1 8 4 18 24 44 29 178 12 270 -24 120 -114 240 -222 294
-116 58 -142 61 -550 66 l-376 4 -26 -24z m691 -328 c83 -22 124 -84 116 -172
-7 -71 -59 -124 -135 -139 -69 -13 -326 -11 -335 3 -9 14 -11 286 -3 300 4 5
21 13 38 16 49 10 273 5 319 -8z"/>
<path d="M6065 2856 c-143 -93 -340 -176 -485 -202 -14 -2 -34 -6 -46 -9 -12
-3 -39 -7 -60 -10 -21 -4 -50 -8 -64 -11 -14 -2 -52 -6 -85 -10 -33 -3 -71 -7
-85 -10 -14 -2 -61 -7 -105 -10 -44 -3 -84 -8 -88 -11 -7 -4 12 -20 117 -93
48 -33 232 -165 241 -173 19 -16 480 -348 532 -383 28 -19 55 -40 61 -47 8
-11 -111 -297 -652 -1560 -20 -46 -20 -67 -2 -93 14 -18 32 -19 643 -19 588 0
630 1 655 18 58 40 51 119 -13 149 -63 30 -590 248 -598 248 -5 0 -14 6 -20
14 -9 10 3 39 52 127 35 63 83 150 107 194 37 69 88 161 220 400 277 501 289
527 297 646 6 87 -10 152 -59 232 -23 39 -196 266 -276 362 -10 11 -63 80
-120 153 -57 72 -107 132 -110 131 -4 0 -30 -15 -57 -33z"/>
<path d="M3745 2528 c-14 -35 -33 -76 -40 -93 -8 -16 -55 -127 -105 -245 -50
-118 -93 -216 -95 -218 -4 -4 -61 14 -625 195 -146 46 -319 102 -385 123 -132
42 -504 160 -520 164 -25 8 -49 -22 -90 -111 -25 -52 -45 -96 -45 -98 0 -2
-18 -41 -39 -87 -178 -377 -334 -737 -335 -771 -1 -68 77 -120 142 -96 15 6
150 134 300 286 163 164 278 273 286 270 7 -3 305 -132 662 -287 357 -155 660
-287 674 -293 106 -44 226 -46 314 -7 86 39 130 89 331 374 17 24 38 54 48 67
32 42 548 763 572 799 14 19 34 47 45 63 l22 27 -545 0 -544 0 -28 -62z"/>
</g>
</svg>
