<?xml version="1.0" encoding="utf-8"?>
<!-- Generator: Adobe Illustrator 21.0.0, SVG Export Plug-In . SVG Version: 6.00 Build 0)  -->
<svg version="1.1" id="Layer_1" xmlns="http://www.w3.org/2000/svg" xmlns:xlink="http://www.w3.org/1999/xlink" x="0px" y="0px"
	 viewBox="0 0 24 24" style="enable-background:new 0 0 24 24;" xml:space="preserve">
<style type="text/css">
	.st0{clip-path:url(#SVGID_2_);}
	.st1{clip-path:url(#SVGID_4_);fill:#131313;}
</style>
<g>
	<defs>
		<path id="SVGID_1_" d="M20.9,6.9C20.4,3,16.6,0,12,0S3.6,3,3.1,6.9C1.3,7.3,0,9,0,10.9c0,1.6,0.9,3,2.2,3.7V21h0
			c0,0.2,0,0.5,0.2,0.7l0.8,1.5C3.4,23.7,3.9,24,4.5,24h2.2c0.6,0,1.1-0.3,1.3-0.8l0.7-1.4h6.4l0.7,1.4c0.3,0.5,0.8,0.8,1.3,0.8h2.2
			c0.6,0,1.1-0.3,1.3-0.8l0.8-1.5c0.1-0.2,0.2-0.4,0.2-0.7h0v-6.5c1.3-0.7,2.2-2.1,2.2-3.7C24,9,22.7,7.3,20.9,6.9z M12,1.5
			c4,0,7.3,2.7,7.5,6c-1.7,0.2-3,1.6-3,3.3v1.9h-9v-1.9c0-1.7-1.3-3.1-3-3.3C4.7,4.2,8,1.5,12,1.5z M7.5,16.5h9v-3h-9V16.5z
			 M6.8,22.5H4.5L3.8,21h3.8L6.8,22.5z M19.5,22.5h-2.2L16.5,21h3.8L19.5,22.5z M20.2,13.5v5.3v1.5H3.8v-6.8
			c-1.3-0.2-2.2-1.3-2.2-2.6c0-1.4,1.2-2.6,2.6-2.6c1.4,0,2.6,1.2,2.6,2.6v6.4h10.5v-6.4c0-1.4,1.2-2.6,2.6-2.6
			c1.4,0,2.6,1.2,2.6,2.6C22.5,12.2,21.5,13.3,20.2,13.5z"/>
	</defs>
	<clipPath id="SVGID_2_">
		<use xlink:href="#SVGID_1_"  style="overflow:visible;"/>
	</clipPath>
	<g class="st0">
		<defs>
			<rect id="SVGID_3_" x="-88" y="-442" width="375" height="667"/>
		</defs>
		<clipPath id="SVGID_4_">
			<use xlink:href="#SVGID_3_"  style="overflow:visible;"/>
		</clipPath>
		<rect x="-5" y="-5" class="st1" width="34" height="34"/>
	</g>
</g>
</svg>
