<?xml version="1.0" encoding="utf-8"?>
<!-- Generator: Adobe Illustrator 21.0.0, SVG Export Plug-In . SVG Version: 6.00 Build 0)  -->
<svg version="1.1" id="Layer_1" xmlns="http://www.w3.org/2000/svg" xmlns:xlink="http://www.w3.org/1999/xlink" x="0px" y="0px"
	 viewBox="0 0 24 24" style="enable-background:new 0 0 24 24;" xml:space="preserve">
<style type="text/css">
	.st0{clip-path:url(#SVGID_2_);}
	.st1{clip-path:url(#SVGID_4_);fill:#131313;}
	.st2{clip-path:url(#SVGID_6_);}
	.st3{clip-path:url(#SVGID_8_);fill:#131313;}
</style>
<g>
	<defs>
		<rect id="SVGID_1_" x="13.5" y="3" width="6" height="3.8"/>
	</defs>
	<clipPath id="SVGID_2_">
		<use xlink:href="#SVGID_1_"  style="overflow:visible;"/>
	</clipPath>
	<g class="st0">
		<defs>
			<rect id="SVGID_3_" x="-176" y="-442" width="375" height="667"/>
		</defs>
		<clipPath id="SVGID_4_">
			<use xlink:href="#SVGID_3_"  style="overflow:visible;"/>
		</clipPath>
		<rect x="8.5" y="-2" class="st1" width="16" height="13.8"/>
	</g>
</g>
<g>
	<defs>
		<path id="SVGID_5_" d="M22.5,9.8h-2.2c1.2,0,2.2-1,2.2-2.2V2.2c0-1.2-1-2.2-2.2-2.2h-7.5c-1.2,0-2.2,1-2.2,2.2v5.2
			c0,1.2,1,2.2,2.2,2.2h-3v-3c0-0.8-0.7-1.5-1.5-1.5H8.2l0.5-2.1c0-0.2-0.1-0.4-0.3-0.4c0,0-0.1,0-0.1,0C8.1,2.7,7.9,2.8,7.9,3
			L7.4,5.2H6.8V3c0-0.2-0.2-0.4-0.4-0.4S6,2.8,6,3v2.2H5.2V3c0-0.2-0.2-0.4-0.4-0.4S4.5,2.8,4.5,3v2.2C3.7,5.2,3,5.9,3,6.8v3H1.5
			C0.7,9.8,0,10.4,0,11.2v2.2c0,0.6,0.3,1,0.8,1.3v7.7c0,0.8,0.7,1.5,1.5,1.5h3c0.8,0,1.5-0.7,1.5-1.5V18h10.5v4.5
			c0,0.8,0.7,1.5,1.5,1.5h3c0.8,0,1.5-0.7,1.5-1.5v-7.7c0.4-0.3,0.8-0.7,0.8-1.3v-2.2C24,10.4,23.3,9.8,22.5,9.8z M12,7.5V2.2
			c0-0.4,0.3-0.8,0.8-0.8h7.5c0.4,0,0.8,0.3,0.8,0.8v5.2c0,0.4-0.3,0.8-0.8,0.8h-7.5C12.3,8.2,12,7.9,12,7.5z M18.8,10.5h-4.5
			c0.4,0,0.8-0.3,0.8-0.8V9h3v0.8C18,10.2,18.3,10.5,18.8,10.5z M4.5,10.5h3.8V6.8H4.5V10.5z M21.8,22.5h-3v-4.9
			c0-0.6-0.5-1.1-1.1-1.1H6.4c-0.6,0-1.1,0.5-1.1,1.1v4.9h-3v-8.2h19.5V22.5z M1.5,13.5h21v-2.2h-21V13.5z"/>
	</defs>
	<clipPath id="SVGID_6_">
		<use xlink:href="#SVGID_5_"  style="overflow:visible;"/>
	</clipPath>
	<g class="st2">
		<defs>
			<rect id="SVGID_7_" x="-176" y="-442" width="375" height="667"/>
		</defs>
		<clipPath id="SVGID_8_">
			<use xlink:href="#SVGID_7_"  style="overflow:visible;"/>
		</clipPath>
		<rect x="-5" y="-5" class="st3" width="34" height="34"/>
	</g>
</g>
</svg>
