<?xml version="1.0" encoding="utf-8"?>
<!-- Generator: Adobe Illustrator 21.0.0, SVG Export Plug-In . SVG Version: 6.00 Build 0)  -->
<svg version="1.1" id="Layer_1" xmlns="http://www.w3.org/2000/svg" xmlns:xlink="http://www.w3.org/1999/xlink" x="0px" y="0px"
	 viewBox="0 0 24 24" style="enable-background:new 0 0 24 24;" xml:space="preserve">
<style type="text/css">
	.st0{clip-path:url(#SVGID_2_);}
	.st1{clip-path:url(#SVGID_4_);fill:#131313;}
	.st2{clip-path:url(#SVGID_6_);}
	.st3{clip-path:url(#SVGID_8_);fill:#131313;}
</style>
<g>
	<defs>
		<path id="SVGID_1_" d="M23.5,8.7c0.4,0.4,0.6,1.1,0.4,1.6c-0.2,0.6-0.8,0.9-1.4,0.9V15c0,0.8-0.7,1.5-1.5,1.5h-1.5
			c-0.7,0.4-1.7,1.2-2.1,2.2c-0.3,0.8-0.1,1.9,0.5,3.1c0.2,0.5,0.2,1-0.1,1.5c-0.3,0.4-0.8,0.7-1.3,0.7H8.3c-0.5,0-1-0.3-1.3-0.7
			c-0.3-0.4-0.3-1-0.1-1.4c0.6-1.3,0.8-2.5,0.4-3.5c-0.3-0.9-0.9-1.5-1.6-2c-0.4,0.1-0.8,0.2-1.3,0.2C2,16.5,0,14.5,0,12
			c0-2,1.3-3.6,3-4.2c0-0.1,0-0.2,0-0.3C3,5,5,3,7.5,3c0.1,0,0.2,0,0.3,0C8.4,1.3,10,0,12,0c1.7,0,3.1,0.9,3.9,2.3
			c0.1,0,0.1,0,0.2,0c0.4,0,0.7,0.1,1,0.4L23.5,8.7z M4.5,15c1.5,0,2.7-1.1,2.9-2.5C8,13,8.6,13.3,9.4,13.3c0.4,0,0.8-0.1,1.1-0.2
			v-2.5H9.8c-0.3,0-0.6-0.2-0.7-0.5C8.9,9.7,9,9.4,9.2,9.2l5.7-5.4c-0.3-1.3-1.5-2.3-2.9-2.3c-1.7,0-3,1.3-3,3c0,0.2,0,0.3,0,0.4
			c-0.5-0.3-1-0.4-1.5-0.4c-1.7,0-3,1.3-3,3c0,0.6,0.2,1.1,0.4,1.5C4.8,9,4.7,9,4.5,9c-1.7,0-3,1.3-3,3c0,0.3,0.1,0.7,0.2,1l0,0
			C2.1,14.1,3.2,15,4.5,15z M16,18.2c0.4-1,1.2-1.8,2-2.4h-1.8H15c-0.5,0.4-1.1,0.9-1.5,1.5v-1.5h-0.4h-1.9c-0.4,0-0.8-0.3-0.8-0.8
			v-1.2C10.3,13.9,10,14,9.8,14v1.3c-0.4-0.5-0.8-1-1.3-1.4c-0.2-0.1-0.4-0.1-0.6-0.2c-0.3,0.6-0.7,1.1-1.2,1.4
			c0.8,0.6,1.7,1.5,2.1,2.8c0.5,1.3,0.3,3-0.5,4.7h8.3C15.8,20.9,15.5,19.4,16,18.2z M21,9.8h1.5l-6.4-6l-6.4,6h1.5V15h1.9h3h3H21
			V9.8z"/>
	</defs>
	<clipPath id="SVGID_2_">
		<use xlink:href="#SVGID_1_"  style="overflow:visible;"/>
	</clipPath>
	<g class="st0">
		<defs>
			<rect id="SVGID_3_" x="-263" y="-442" width="375" height="667"/>
		</defs>
		<clipPath id="SVGID_4_">
			<use xlink:href="#SVGID_3_"  style="overflow:visible;"/>
		</clipPath>
		<rect x="-5" y="-5" class="st1" width="34" height="34"/>
	</g>
</g>
<g>
	<defs>
		<path id="SVGID_5_" d="M14.2,12v-1.5h1.5V12H14.2z M16.5,12v-1.5H18V12H16.5z M14.2,9.8V8.2h1.5v1.5H14.2z M16.5,9.8V8.2H18v1.5
			H16.5z"/>
	</defs>
	<clipPath id="SVGID_6_">
		<use xlink:href="#SVGID_5_"  style="overflow:visible;"/>
	</clipPath>
	<g class="st2">
		<defs>
			<rect id="SVGID_7_" x="-263" y="-442" width="375" height="667"/>
		</defs>
		<clipPath id="SVGID_8_">
			<use xlink:href="#SVGID_7_"  style="overflow:visible;"/>
		</clipPath>
		<rect x="9.2" y="3.2" class="st3" width="13.8" height="13.8"/>
	</g>
</g>
</svg>
