<svg width="150" height="150" viewBox="0 0 150 150" fill="none" xmlns="http://www.w3.org/2000/svg">
	<path d="M76.3316 89.03L72.5221 97.9894L50.582 91.0053C50.1587 90.8642 49.806 91.0758 49.5944 91.4286L43.1746 105.538C42.3986 107.09 44.3739 108.642 45.7143 107.443L53.4744 99.6825L72.8042 108.148C75.5556 109.277 77.9542 108.783 79.6473 106.384L92.0635 89.1005C92.0635 89.1005 92.0635 89.03 91.993 89.03H76.3316Z" fill="black"/>
	<path d="M117.037 93.0511L110.406 84.6561C105.467 88.254 101.023 88.6067 94.7443 89.1005C94.7443 89.1005 94.6737 89.1711 94.7443 89.1711L108.783 99.3298L99.0476 122.046C98.7654 122.61 99.0476 123.457 99.612 123.457H116.825C118.73 123.457 119.012 121.481 117.601 120.988L108.501 117.178L116.825 102.081C119.295 97.9189 119.083 95.873 117.037 93.0511Z" fill="black"/>
	<path d="M95.0264 28.7125H72.2399C70.0529 28.7125 68.2187 30.5467 68.2187 32.7337V80.9171C68.2187 83.1746 69.9824 84.9383 72.2399 84.9383H95.0264C110.406 84.9383 122.892 72.3104 122.892 56.7901C122.892 41.2698 110.335 28.7125 95.0264 28.7125ZM106.314 57.284C106.314 63.0688 101.658 67.7954 95.873 67.7954H87.4074C86.2081 67.7954 85.2204 66.8078 85.2204 65.5379V48.5362C85.2204 47.2663 86.2081 46.2787 87.4074 46.2787H95.873C101.658 46.2787 106.314 51.0053 106.314 56.7901V57.284Z" fill="black"/>
	<path d="M43.3862 48.254C43.3862 47.5485 42.8219 46.9841 42.1869 46.9841H38.5891C38.0952 46.9841 37.6014 47.2663 37.3192 47.6896L32.8748 54.8854C32.7337 55.097 32.4515 55.097 32.3809 54.8854L27.9365 47.6896C27.6543 47.2663 27.1605 46.9841 26.6667 46.9841H23.0688C22.4338 46.9841 21.8695 47.5485 21.8695 48.254V65.7496C21.8695 66.455 22.4338 67.0194 23.0688 67.0194H25.8201C26.455 67.0194 27.0194 66.455 27.0194 65.7496V55.9436C27.0899 55.9436 27.0899 55.9436 27.0899 55.9436L31.5344 62.6455C32.0282 63.4215 33.0864 63.4215 33.5802 62.6455L37.9541 55.873C38.0247 55.873 38.0247 55.873 38.0247 55.873V65.7496C38.0247 66.455 38.5891 67.0194 39.224 67.0194H42.1164C42.7513 67.0194 43.3157 66.455 43.3157 65.7496V48.254H43.3862Z" fill="black"/>
	<path d="M47.9718 67.0194H50.8642C51.4991 67.0194 52.0635 66.455 52.0635 65.7496V61.3051C52.0635 61.0935 52.2046 60.9524 52.4162 60.9524H54.9559L58.9771 66.3139C59.2593 66.7372 59.6825 67.0194 60.1764 67.0194H64.1975C64.7619 67.0194 65.0441 66.3139 64.7619 65.8907L60.388 60.2469C62.7866 59.1887 64.4092 57.0018 64.4092 53.9683V53.8977C64.4092 51.9224 63.8448 50.3704 62.7161 49.2416C61.4462 47.9012 59.4004 47.0547 56.4374 47.0547H48.0423C47.4074 47.0547 46.843 47.6191 46.843 48.3245V65.8201C46.7725 66.455 47.3369 67.0194 47.9718 67.0194ZM52.0635 52.3457C52.0635 52.0635 52.2751 51.7813 52.5573 51.7813H56.0847C57.8483 51.7813 58.9771 52.5573 58.9771 54.1799V54.2505C58.9771 55.7319 57.9189 56.649 56.1552 56.649H52.6279C52.3457 56.649 52.1341 56.4374 52.1341 56.0847V52.3457H52.0635Z" fill="black"/>
</svg>
